<?xml version="1.0" encoding="utf-8"?>
<!-- Generator: Adobe Illustrator 24.0.2, SVG Export Plug-In . SVG Version: 6.00 Build 0)  -->
<svg version="1.1"
	 id="svg2" xmlns:cc="http://creativecommons.org/ns#" xmlns:dc="http://purl.org/dc/elements/1.1/" xmlns:inkscape="http://www.inkscape.org/namespaces/inkscape" xmlns:rdf="http://www.w3.org/1999/02/22-rdf-syntax-ns#" xmlns:sodipodi="http://sodipodi.sourceforge.net/DTD/sodipodi-0.dtd" xmlns:svg="http://www.w3.org/2000/svg"
	 xmlns="http://www.w3.org/2000/svg" xmlns:xlink="http://www.w3.org/1999/xlink" x="0px" y="0px" viewBox="0 0 451.1 451"
	 style="enable-background:new 0 0 451.1 451;" xml:space="preserve">
<style type="text/css">
	.st0{fill-rule:evenodd;clip-rule:evenodd;fill:#B20000;}
	.st1{fill:none;stroke:#000000;stroke-width:1.0718;}
	.st2{fill:none;stroke:#000000;stroke-width:1.0687;}
	.st3{fill:none;stroke:#000000;}
	.st4{fill:none;stroke:#000000;stroke-width:1.3131;}
	.st5{fill-rule:evenodd;clip-rule:evenodd;fill:#00CC0E;fill-opacity:0.5516;}
	.st6{fill:#D3F2D3;stroke:#000000;stroke-width:0.8654;stroke-miterlimit:3.4617;}
	.st7{fill:none;stroke:#000000;stroke-width:1.2082;stroke-linejoin:bevel;}
	.st8{font-family:'ArialMT';}
	.st9{font-size:4px;}
	.st10{fill-rule:evenodd;clip-rule:evenodd;fill:#ADA91A;}
	.st11{fill:none;stroke:#000000;stroke-width:1.3169;}
	.st12{fill:none;stroke:#000000;stroke-width:1.1551;}
	.st13{fill-rule:evenodd;clip-rule:evenodd;fill:#8099DD;stroke:#000000;}
	.st14{fill-rule:evenodd;clip-rule:evenodd;fill:#AF3E3E;stroke:#000000;}
	.st15{fill-rule:evenodd;clip-rule:evenodd;fill:#648786;}
	.st16{fill:none;stroke:#000000;stroke-width:1.3191;}
	.st17{fill-rule:evenodd;clip-rule:evenodd;fill:#82AFAD;stroke:#000000;}
	.st18{fill-rule:evenodd;clip-rule:evenodd;fill:#A8A585;stroke:#000000;}
	.st19{fill-rule:evenodd;clip-rule:evenodd;fill:#3F62E0;}
	.st20{fill:none;stroke:#000000;stroke-width:1.0746;}
	.st21{fill:none;stroke:#000000;stroke-width:1.3152;}
	.st22{fill:none;stroke:#000000;stroke-width:1.319;}
	.st23{fill:none;stroke:#000000;stroke-width:1.3161;}
	.st24{font-family:'Arial-BoldMT';}
	.st25{font-size:6px;}
	
		.st26{opacity:0.5;fill-rule:evenodd;clip-rule:evenodd;fill:url(#path12778_1_);stroke:#000000;stroke-width:2;stroke-linejoin:bevel;}
	
		.st27{opacity:0.56;fill-rule:evenodd;clip-rule:evenodd;fill:url(#path16288_1_);stroke:#000000;stroke-width:2;stroke-linejoin:bevel;}
	
		.st28{opacity:0.5;fill-rule:evenodd;clip-rule:evenodd;fill:url(#path18919_1_);stroke:#000000;stroke-width:2;stroke-linejoin:bevel;}
	
		.st29{opacity:0.5;fill-rule:evenodd;clip-rule:evenodd;fill:url(#path18921_1_);stroke:#000000;stroke-width:2;stroke-linejoin:bevel;}
	.st30{opacity:0.5;}
	.st31{fill:#FFFFFF;}
</style>
<defs>
	
		<inkscape:perspective  id="perspective3618" inkscape:persp3d-origin="372.04724 : 350.78739 : 1" inkscape:vp_x="0 : 526.18109 : 1" inkscape:vp_y="0 : 1000 : 0" inkscape:vp_z="744.09448 : 526.18109 : 1" sodipodi:type="inkscape:persp3d">
		</inkscape:perspective>
</defs>
<sodipodi:namedview  bordercolor="#666666" borderopacity="1.0" gridtolerance="1px" id="base" inkscape:current-layer="layer1" inkscape:cx="160.95076" inkscape:cy="236.45219" inkscape:document-units="px" inkscape:grid-bbox="true" inkscape:grid-points="true" inkscape:guide-bbox="true" inkscape:guide-points="false" inkscape:pageopacity="0.0" inkscape:pageshadow="2" inkscape:window-height="977" inkscape:window-width="1280" inkscape:window-x="0" inkscape:window-y="20" inkscape:zoom="1.4055974" pagecolor="#ffffff" showborder="true" showgrid="false" showguides="true">
	
		<inkscape:grid  color="#0000ff" empcolor="#0000ff" empopacity="0.4" empspacing="5" enabled="true" id="GridFromPre046Settings" opacity="0.2" originx="0px" originy="0px" spacingx="10px" spacingy="10px" type="xygrid" visible="true">
		</inkscape:grid>
</sodipodi:namedview>
<path id="path7709" class="st0" d="M172,171.9l106.7-0.2l-53.3,53.6L172,171.9z"/>
<rect id="rect5057" x="150.6" y="86.3" class="st0" width="50" height="21.7"/>
<rect id="rect3293" x="200.6" y="22.4" class="st0" width="50" height="149.5"/>
<path id="path1481" class="st1" d="M200.6,171.7V1.4"/>
<path id="path1483" class="st2" d="M250.6,0.5v171.3"/>
<path id="path1485" class="st3" d="M150.6,150.5h150"/>
<path id="path1493" class="st4" d="M151.4,65.6h148.7"/>
<path id="path1495" class="st4" d="M151.4,23.1h148.7"/>
<path id="path1497" class="st4" d="M151.4,44.3h148.7"/>
<path id="path1499" class="st4" d="M151.4,86.9h148.7"/>
<path id="path1501" class="st4" d="M151.4,108.2h148.7"/>
<path id="path1503" class="st4" d="M151.4,129.5h148.7"/>
<path id="path3295" sodipodi:cx="190" sodipodi:cy="59.967434" sodipodi:rx="10" sodipodi:ry="10" sodipodi:type="arc" class="st5" d="
	M234.3,12.1c0,4.8-3.9,8.7-8.7,8.7s-8.7-3.9-8.7-8.7s3.9-8.7,8.7-8.7S234.3,7.3,234.3,12.1z"/>
<path id="path4180" sodipodi:cx="190" sodipodi:cy="59.967434" sodipodi:rx="10" sodipodi:ry="10" sodipodi:type="arc" class="st5" d="
	M284.5,97.1c0,4.8-3.9,8.7-8.7,8.7s-8.7-3.9-8.7-8.7s3.9-8.7,8.7-8.7S284.5,92.3,284.5,97.1z"/>
<path id="path4182" sodipodi:cx="190" sodipodi:cy="59.967434" sodipodi:rx="10" sodipodi:ry="10" sodipodi:type="arc" class="st6" d="
	M185,97.7c0,4.8-3.9,8.7-8.7,8.7s-8.7-3.9-8.7-8.7s3.9-8.7,8.7-8.7S185,92.9,185,97.7z"/>
<path id="path5059" class="st3" d="M150.6,150.5l150,150"/>
<path id="path5061" class="st3" d="M300.6,150.5l-150,150"/>
<path id="path5069" class="st7" d="M172.3,172h106.5"/>
<text transform="matrix(-1 0 0 -1 183.4795 96.1211)" class="st8 st9">SALIDA</text>
<path id="path10460" class="st10" d="M279.1,279.1l-106.7,0.2l53.3-53.6L279.1,279.1z"/>
<path id="rect10462" class="st10" d="M300.6,364.7h-50V343h50V364.7z"/>
<path id="rect10464" class="st10" d="M250.6,428.6h-50V279.1h50V428.6z"/>
<path id="path10466" class="st1" d="M250.6,279.3v170.3"/>
<path id="path10468" class="st2" d="M200.6,450.5V279.1"/>
<path id="path10470" class="st3" d="M300.6,300.5h-150"/>
<path id="path10472" class="st11" d="M300.6,385.4H151"/>
<path id="path10474" class="st11" d="M300.6,427.9H151"/>
<path id="path10476" class="st11" d="M300.6,406.7H151"/>
<path id="path10478" class="st11" d="M300.6,364.1H151"/>
<path id="path10480" class="st12" d="M299.9,342.6H151"/>
<path id="path10482" class="st11" d="M300.6,321.5H151"/>
<path id="path10484" sodipodi:cx="190" sodipodi:cy="59.967434" sodipodi:rx="10" sodipodi:ry="10" sodipodi:type="arc" class="st5" d="
	M216.8,438.9c0-4.8,3.9-8.7,8.7-8.7s8.7,3.9,8.7,8.7s-3.9,8.7-8.7,8.7S216.8,443.7,216.8,438.9z"/>
<path id="path10486" sodipodi:cx="190" sodipodi:cy="59.967434" sodipodi:rx="10" sodipodi:ry="10" sodipodi:type="arc" class="st5" d="
	M166.6,353.3c0-4.8,3.9-8.7,8.7-8.7s8.7,3.9,8.7,8.7s-3.9,8.7-8.7,8.7S166.6,358.1,166.6,353.3z"/>
<path id="path10488" sodipodi:cx="190" sodipodi:cy="59.967434" sodipodi:rx="10" sodipodi:ry="10" sodipodi:type="arc" class="st6" d="
	M266.1,353.3c0-4.8,3.9-8.7,8.7-8.7s8.7,3.9,8.7,8.7s-3.9,8.7-8.7,8.7S266.1,358.1,266.1,353.3z"/>
<path id="path10490" class="st7" d="M278.8,279H172.3"/>
<text transform="matrix(1 0 0 1 267.5892 354.8761)" class="st8 st9">SALIDA</text>
<rect id="rect1477" x="300.6" y="1" class="st13" width="150" height="149.5"/>
<rect id="rect3291" x="1.1" y="1" class="st14" width="150" height="149.5"/>
<rect id="rect9426" x="1.1" y="1" class="st3" width="449.4" height="449"/>
<path id="path8612" class="st15" d="M171.9,278.5l-0.2-106.7l53.6,53.3L171.9,278.5z"/>
<rect id="rect8614" x="86.3" y="250" class="st15" width="21.7" height="50"/>
<rect id="rect8616" x="22.4" y="200" class="st15" width="149.5" height="50"/>
<path id="path8618" class="st1" d="M171.7,250H1.5"/>
<path id="path8620" class="st2" d="M0.6,200h171.3"/>
<path id="path8622" class="st3" d="M151.1,300V150"/>
<path id="path8624" class="st16" d="M65.7,300.5v-150"/>
<path id="path8626" class="st16" d="M23.1,300.5v-150"/>
<path id="path8628" class="st16" d="M44.4,300.5v-150"/>
<path id="path8630" class="st16" d="M86.9,300.5v-150"/>
<path id="path8632" class="st16" d="M108.2,300.5v-150"/>
<path id="path8634" class="st16" d="M129.5,300.5v-150"/>
<path id="path8636" sodipodi:cx="190" sodipodi:cy="59.967434" sodipodi:rx="10" sodipodi:ry="10" sodipodi:type="arc" class="st5" d="
	M12.1,216.2c4.8,0,8.7,3.9,8.7,8.7s-3.9,8.7-8.7,8.7s-8.7-3.9-8.7-8.7S7.3,216.2,12.1,216.2z"/>
<path id="path8638" sodipodi:cx="190" sodipodi:cy="59.967434" sodipodi:rx="10" sodipodi:ry="10" sodipodi:type="arc" class="st5" d="
	M97.4,166c4.8,0,8.7,3.9,8.7,8.7s-3.9,8.7-8.7,8.7s-8.7-3.9-8.7-8.7S92.6,166,97.4,166z"/>
<path id="path8640" sodipodi:cx="190" sodipodi:cy="59.967434" sodipodi:rx="10" sodipodi:ry="10" sodipodi:type="arc" class="st6" d="
	M97.7,265.5c4.8,0,8.7,3.9,8.7,8.7s-3.9,8.7-8.7,8.7c-4.8,0-8.7-3.9-8.7-8.7S92.9,265.5,97.7,265.5z"/>
<path id="path8646" class="st7" d="M172,278.2V171.7"/>
<text transform="matrix(0 1 -1 0 96.1211 267.0182)" class="st8 st9">SALIDA</text>
<rect id="rect8678" x="1.1" y="300.7" class="st17" width="150" height="149.5"/>
<rect id="rect8684" x="300.7" y="301" class="st18" width="150" height="149"/>
<path id="path11413" class="st19" d="M279.2,171.9l0.2,106.7l-53.6-53.3L279.2,171.9z"/>
<path id="path11415" class="st19" d="M364.2,150.5v50h-21.7v-50H364.2z"/>
<path id="path11417" class="st19" d="M428.7,200.5v50H279.2v-50H428.7z"/>
<path id="path11419" class="st20" d="M279.4,200.5h171.2"/>
<path id="path11421" class="st2" d="M450.6,250.5H279.2"/>
<path id="path11423" class="st3" d="M300.6,150.5v150"/>
<path id="path11425" class="st21" d="M385.5,151.3v149.1"/>
<path id="path11427" class="st22" d="M428,150.5v150"/>
<path id="path11429" class="st22" d="M406.7,150.5v150"/>
<path id="path11431" class="st23" d="M364.2,151.1v149.3"/>
<path id="path11433" class="st22" d="M342.9,150.5v150"/>
<path id="path11435" class="st22" d="M321.6,150.5v150"/>
<path id="path11437" sodipodi:cx="190" sodipodi:cy="59.967434" sodipodi:rx="10" sodipodi:ry="10" sodipodi:type="arc" class="st5" d="
	M439,234.2c-4.8,0-8.7-3.9-8.7-8.7s3.9-8.7,8.7-8.7s8.7,3.9,8.7,8.7S443.8,234.2,439,234.2z"/>
<path id="path11439" sodipodi:cx="190" sodipodi:cy="59.967434" sodipodi:rx="10" sodipodi:ry="10" sodipodi:type="arc" class="st5" d="
	M353.4,284.4c-4.8,0-8.7-3.9-8.7-8.7s3.9-8.7,8.7-8.7s8.7,3.9,8.7,8.7S358.2,284.4,353.4,284.4z"/>
<path id="path11441" sodipodi:cx="190" sodipodi:cy="59.967434" sodipodi:rx="10" sodipodi:ry="10" sodipodi:type="arc" class="st6" d="
	M352.8,184.9c-4.8,0-8.7-3.9-8.7-8.7s3.9-8.7,8.7-8.7s8.7,3.9,8.7,8.7S357.6,184.9,352.8,184.9z"/>
<path id="path11443" class="st7" d="M279.1,172.2v106.5"/>
<text transform="matrix(0 -1 1 0 354.3502 183.4082)" class="st8 st9">SALIDA</text>
<text transform="matrix(1 0 0 1 252.144 433.8345)" class="st24 st25">1</text>
<text transform="matrix(1 0 0 1 252.144 412.6437)" class="st24 st25">2</text>
<text transform="matrix(1 0 0 1 252.144 391.7514)" class="st24 st25">3</text>
<text transform="matrix(1 0 0 1 252.144 370.3813)" class="st24 st25">4</text>
<text transform="matrix(1 0 0 1 252.144 348.5936)" class="st24 st25">5</text>
<text transform="matrix(1 0 0 1 252.144 327.8775)" class="st24 st25">6</text>
<text transform="matrix(1 0 0 1 252.144 306.8059)" class="st24 st25">7</text>
<text transform="matrix(1 0 0 1 252.144 285.3167)" class="st24 st25">8</text>
<text transform="matrix(0 -1 1 0 434.0809 259.0303)" class="st24 st25">16</text>
<text transform="matrix(0 -1 1 0 412.8901 259.0303)" class="st24 st25">15</text>
<text transform="matrix(0 -1 1 0 391.6992 259.0303)" class="st24 st25">14</text>
<text transform="matrix(0 -1 1 0 370.2101 259.0303)" class="st24 st25">13</text>
<text transform="matrix(0 -1 1 0 349.0193 259.0303)" class="st24 st25">12</text>
<text transform="matrix(0 -1 1 0 328.1239 259.0303)" class="st24 st25">11</text>
<text transform="matrix(0 -1 1 0 306.6345 259.0303)" class="st24 st25">10</text>
<text transform="matrix(0 -1 1 0 285.5034 259.0303)" class="st24 st25">  9</text>
<text transform="matrix(0 -1 1 0 434.0809 198.4424)" class="st24 st25">18</text>
<text transform="matrix(0 -1 1 0 412.8901 198.4424)" class="st24 st25">19</text>
<text transform="matrix(0 -1 1 0 391.6992 198.4424)" class="st24 st25">20</text>
<text transform="matrix(0 -1 1 0 370.2833 198.4424)" class="st24 st25">21</text>
<text transform="matrix(0 -1 1 0 349.0193 198.4424)" class="st24 st25">22</text>
<text transform="matrix(0 -1 1 0 328.1239 198.4424)" class="st24 st25">23</text>
<text transform="matrix(0 -1 1 0 306.6345 198.4424)" class="st24 st25">24</text>
<text transform="matrix(0 -1 1 0 285.205 198.4424)" class="st24 st25">25</text>
<text transform="matrix(0 -1 1 0 434.1321 248.0273)" class="st24 st25">17</text>
<g id="g12636" transform="translate(43.35909,0)">
	<text transform="matrix(-1 0 0 -1 215.8157 16.2012)" class="st24 st25">33</text>
	<text transform="matrix(-1 0 0 -1 215.8157 37.3926)" class="st24 st25">32</text>
	<text transform="matrix(-1 0 0 -1 215.8157 58.584)" class="st24 st25">31</text>
	<text transform="matrix(-1 0 0 -1 215.8157 80.0723)" class="st24 st25">30</text>
	<text transform="matrix(-1 0 0 -1 215.8157 101.2637)" class="st24 st25">29</text>
	<text transform="matrix(-1 0 0 -1 215.8157 122.1582)" class="st24 st25">28</text>
	<text transform="matrix(-1 0 0 -1 215.8157 143.6484)" class="st24 st25">27</text>
	<text transform="matrix(-1 0 0 -1 215.8157 164.7793)" class="st24 st25">26</text>
	<text transform="matrix(-1 0 0 -1 155.2278 16.2012)" class="st24 st25">35</text>
	<text transform="matrix(-1 0 0 -1 155.2278 37.3926)" class="st24 st25">36</text>
	<text transform="matrix(-1 0 0 -1 155.2278 58.584)" class="st24 st25">37</text>
	<text transform="matrix(-1 0 0 -1 155.2278 80)" class="st24 st25">38</text>
	<text transform="matrix(-1 0 0 -1 155.2278 101.2637)" class="st24 st25">39</text>
	<text transform="matrix(-1 0 0 -1 155.2278 122.1582)" class="st24 st25">40</text>
	<text transform="matrix(-1 0 0 -1 155.2278 143.6484)" class="st24 st25">41</text>
	<text transform="matrix(-1 0 0 -1 155.2278 165.0781)" class="st24 st25">42</text>
	<text transform="matrix(-1 0 0 -1 204.8128 16.1504)" class="st24 st25">34</text>
</g>
<g id="g12672" transform="matrix(0,-1,1,0,-38.66719,451.8884)">
	<text transform="matrix(-1 0 0 -1 260.5389 55.2766)" class="st24 st25">50</text>
	<text transform="matrix(-1 0 0 -1 260.5389 76.468)" class="st24 st25">49</text>
	<text transform="matrix(-1 0 0 -1 260.5389 97.6574)" class="st24 st25">48</text>
	<text transform="matrix(-1 0 0 -1 260.5389 119.1477)" class="st24 st25">47</text>
	<text transform="matrix(-1 0 0 -1 260.5389 140.3391)" class="st24 st25">46</text>
	<text transform="matrix(-1 0 0 -1 260.5389 161.2336)" class="st24 st25">45</text>
	<text transform="matrix(-1 0 0 -1 260.5389 182.7219)" class="st24 st25">44</text>
	<text transform="matrix(-1 0 0 -1 260.5389 203.8527)" class="st24 st25">43</text>
	<text transform="matrix(-1 0 0 -1 199.9511 55.2766)" class="st24 st25">52</text>
	<text transform="matrix(-1 0 0 -1 199.9511 76.468)" class="st24 st25">53</text>
	<text transform="matrix(-1 0 0 -1 199.9511 97.6574)" class="st24 st25">54</text>
	<text transform="matrix(-1 0 0 -1 199.9511 119.0734)" class="st24 st25">55</text>
	<text transform="matrix(-1 0 0 -1 199.9511 140.3391)" class="st24 st25">56</text>
	<text transform="matrix(-1 0 0 -1 199.9511 161.2336)" class="st24 st25">57</text>
	<text transform="matrix(-1 0 0 -1 199.9511 182.7219)" class="st24 st25">58</text>
	<text transform="matrix(-1 0 0 -1 199.9511 204.1516)" class="st24 st25">59</text>
	<text transform="matrix(-1 0 0 -1 249.5359 55.2258)" class="st24 st25">51</text>
</g>
<text transform="matrix(1 0 0 1 192.0826 433.8345)" class="st24 st25">67</text>
<text transform="matrix(1 0 0 1 192.0826 412.6437)" class="st24 st25">66</text>
<text transform="matrix(1 0 0 1 192.0826 391.7514)" class="st24 st25">65</text>
<text transform="matrix(1 0 0 1 192.0826 370.3813)" class="st24 st25">64</text>
<text transform="matrix(1 0 0 1 192.0826 348.5936)" class="st24 st25">63</text>
<text transform="matrix(1 0 0 1 192.0826 327.8775)" class="st24 st25">62</text>
<text transform="matrix(1 0 0 1 192.0826 306.8059)" class="st24 st25">61</text>
<text transform="matrix(1 0 0 1 192.0826 285.3167)" class="st24 st25">60</text>
<text transform="matrix(1 0 0 1 202.4 433.8345)" class="st24 st25">68</text>
<g>
	<g>
		<defs>
			<path id="path8686" d="M450.1,375.4c0,40.3-33.3,73.1-74.1,73.1s-74.1-32.7-74.1-73.1s33.2-73.1,74.1-73.1S450.1,335,450.1,375.4
				z"/>
		</defs>
		<clipPath id="path8686_1_">
			<use xlink:href="#path8686"  style="overflow:visible;"/>
		</clipPath>
		<g style="clip-path:url(#path8686_1_);">
			
				<image style="overflow:visible;" width="875" height="800" xlink:href="49EC7649.jpg"  transform="matrix(0.1828 0 0 0.1828 290.2332 301.497)">
			</image>
		</g>
	</g>
	
		<radialGradient id="path12778_1_" cx="394.733" cy="137.0475" r="59.7916" gradientTransform="matrix(0.6969 0.7266 -0.7481 0.6972 203.0416 -8.5295)" gradientUnits="userSpaceOnUse">
		<stop  offset="0" style="stop-color:#FFFFFF"/>
		<stop  offset="1" style="stop-color:#7F7F7F"/>
	</radialGradient>
	
		<path id="path12778" inkscape:flatsided="false" inkscape:randomized="0" inkscape:rounded="0" sodipodi:arg1="0.75655644" sodipodi:arg2="0.99821742" sodipodi:cx="321.30942" sodipodi:cy="403.47925" sodipodi:r1="53.204556" sodipodi:r2="30.160938" sodipodi:sides="13" sodipodi:type="star" class="st26" d="
		M375.9,434.7l-8.3-27l-20.1,20.1L353,400l-27.3,8.7l17.9-22.1l-28.2-4.9l26.3-11.4l-22.7-17.2l28.6,1.9l-12.2-25.7l24.4,14.8
		l1.5-28.3l14.7,24.3l14.6-24.3l1.5,28.3l24.4-14.8l-11.9,25.7l28.6-2l-22.7,17.2l26.3,11.3l-28.2,4.9l17.9,22.1l-27.3-8.6l5.4,27.7
		l-20.1-20.1L375.9,434.7z"/>
</g>
<g>
	<g>
		<defs>
			
				<path id="path1479" sodipodi:cx="101.04425" sodipodi:cy="353.10019" sodipodi:rx="83.160309" sodipodi:ry="83.160309" sodipodi:type="arc" d="
				M449.1,75.6c0,40.8-33,73.8-73.8,73.8s-73.8-33-73.8-73.8l0,0c0-40.8,33-73.8,73.8-73.8C416,1.8,449.1,34.9,449.1,75.6
				C449.1,75.5,449.1,75.6,449.1,75.6z"/>
		</defs>
		<clipPath id="path1479_1_">
			<use xlink:href="#path1479"  style="overflow:visible;"/>
		</clipPath>
		<g style="clip-path:url(#path1479_1_);">
			
				<image style="overflow:visible;" width="436" height="435" xlink:href="49EC7640.jpg"  transform="matrix(0.3437 0 0 0.3437 299.4576 0.6948)">
			</image>
		</g>
	</g>
	
		<radialGradient id="path16288_1_" cx="263.9805" cy="-115.5238" r="60.3101" gradientTransform="matrix(0.3801 0.9249 -0.9687 0.398 162.2473 -123.2523)" gradientUnits="userSpaceOnUse">
		<stop  offset="0" style="stop-color:#FFFFFF"/>
		<stop  offset="1" style="stop-color:#7F7F7F"/>
	</radialGradient>
	
		<path id="path16288" inkscape:flatsided="false" inkscape:randomized="0" inkscape:rounded="0" sodipodi:arg1="0.75655644" sodipodi:arg2="0.99821742" sodipodi:cx="321.30942" sodipodi:cy="403.47925" sodipodi:r1="53.204556" sodipodi:r2="30.160938" sodipodi:sides="13" sodipodi:type="star" class="st27" d="
		M352.7,132.3l2.1-28.4l-25.9,11.9l15.1-24.2l-28.4-1.6l24.7-14.4l-24.5-14.7l28.5-1.4l-14.8-24.3l25.8,12.1l-1.8-28.5l17.2,22.7
		l11.5-26l4.8,28.1l22.4-17.7l-8.8,27.2l28.1-5.3L408,67.5l27.3,8.3L408,84l20.3,20.1l-28-5.5l8.6,27.2l-22.3-17.9l-5,28.1
		l-11.4-26.1L352.7,132.3z"/>
</g>
<g>
	<g>
		<defs>
			
				<path id="path8680" sodipodi:cx="101.04425" sodipodi:cy="353.10019" sodipodi:rx="83.160309" sodipodi:ry="83.160309" sodipodi:type="arc" d="
				M150.1,375.3c0,40.8-33.1,73.8-74.1,73.8S2,416.1,2,375.3l0,0c0-40.8,33.1-73.8,74.1-73.8C116.8,301.4,150.1,334.5,150.1,375.3
				C150.1,375.2,150.1,375.3,150.1,375.3z"/>
		</defs>
		<clipPath id="path8680_1_">
			<use xlink:href="#path8680"  style="overflow:visible;"/>
		</clipPath>
		<g style="clip-path:url(#path8680_1_);">
			
				<image style="overflow:visible;" width="588" height="580" xlink:href="49EC7641.jpg"  transform="matrix(0.2565 0 0 0.2565 1.7957 300.935)">
			</image>
		</g>
	</g>
	
		<radialGradient id="path18919_1_" cx="-537.2697" cy="1119.1912" r="60.3762" gradientTransform="matrix(-0.6894 0.7266 0.7401 0.6972 -1122.5211 -16.2351)" gradientUnits="userSpaceOnUse">
		<stop  offset="0" style="stop-color:#FFFFFF"/>
		<stop  offset="1" style="stop-color:#7F7F7F"/>
	</radialGradient>
	
		<path id="path18919" inkscape:flatsided="false" inkscape:randomized="0" inkscape:rounded="0" sodipodi:arg1="0.75655644" sodipodi:arg2="0.99821742" sodipodi:cx="321.30942" sodipodi:cy="403.47925" sodipodi:r1="53.204556" sodipodi:r2="30.160938" sodipodi:sides="13" sodipodi:type="star" class="st28" d="
		M75.9,435.1l8.3-27.3l20.1,20.3l-5.4-28l27.3,8.8l-17.9-22.3l28.2-4.9l-26.1-11.5l22.7-17.4l-28.5,1.9l12-25.9l-24.4,15l-1.5-28.6
		l-14.7,24.6l-14.6-24.6l-1.5,28.6l-24.4-15l11.9,25.9l-28.5-2.1l22.7,17.4l-26.3,11.4l28.2,4.9l-17.9,22.3l27.3-8.7l-5.4,28
		l20.1-20.3L75.9,435.1z"/>
</g>
<g>
	<g>
		<defs>
			
				<path id="path1323" sodipodi:cx="101.04425" sodipodi:cy="353.10019" sodipodi:rx="83.160309" sodipodi:ry="83.160309" sodipodi:type="arc" d="
				M149.8,75.7c0,40.7-33.1,73.7-73.9,73.7S2,116.4,2,75.7l0,0C2,35,35,2,75.9,2C116.6,1.9,149.8,35,149.8,75.7
				C149.8,75.6,149.8,75.7,149.8,75.7z"/>
		</defs>
		<clipPath id="path1323_1_">
			<use xlink:href="#path1323"  style="overflow:visible;"/>
		</clipPath>
		<g style="clip-path:url(#path1323_1_);">
			
				<image style="overflow:visible;" width="612" height="323" xlink:href="49EC7643.jpg"  transform="matrix(0.4679 0 0 0.4666 0.7716 0.4722)">
			</image>
		</g>
	</g>
	
		<radialGradient id="path18921_1_" cx="-251.6192" cy="1133.6448" r="59.9344" gradientTransform="matrix(-0.3833 0.9301 0.9888 0.4052 -1140.7144 -150.3017)" gradientUnits="userSpaceOnUse">
		<stop  offset="0" style="stop-color:#FFFFFF"/>
		<stop  offset="1" style="stop-color:#7F7F7F"/>
	</radialGradient>
	
		<path id="path18921" inkscape:flatsided="false" inkscape:randomized="0" inkscape:rounded="0" sodipodi:arg1="0.75655644" sodipodi:arg2="0.99821742" sodipodi:cx="321.30942" sodipodi:cy="403.47925" sodipodi:r1="53.204556" sodipodi:r2="30.160938" sodipodi:sides="13" sodipodi:type="star" class="st29" d="
		M98.5,132.3l-2.1-28.4l26,11.9l-15.1-24.2l28.5-1.6l-24.7-14.4L135.6,61L107,59.6l14.9-24.3L96.1,47.2l1.8-28.4L80.7,41.5
		L69.1,15.3l-4.8,28.1L41.9,25.8L50.7,53l-28.1-5.2L43,67.6l-27.3,8.3L43,84l-20.4,20.1l28-5.5l-8.6,27.1l22.3-17.9l5,28.1
		l11.4-26.1L98.5,132.3z"/>
</g>
<g>
	<path class="st30" d="M150.8,139.7v1.8c0,3.9-3.2,7.1-7.1,7.1h-17.8c-3.9,0-7.1-3.2-7.1-7.1v-1.8c0-3.9,3.2-7.1,7.1-7.1h17.8
		C147.6,132.7,150.8,135.8,150.8,139.7z"/>
	<text transform="matrix(1 0 0 1 124.5802 137.8156)" class="st31 st8 st25">Puntos:</text>
</g>
<g>
	<path class="st30" d="M333.5,139.7v1.8c0,3.9-3.2,7.1-7.1,7.1h-17.8c-3.9,0-7.1-3.2-7.1-7.1v-1.8c0-3.9,3.2-7.1,7.1-7.1h17.8
		C330.3,132.7,333.5,135.8,333.5,139.7z"/>
	<text transform="matrix(1 0 0 1 307.3187 137.8156)" class="st31 st8 st25">Puntos:</text>
</g>
<g>
	<path class="st30" d="M333.5,309.4v1.8c0,3.9-3.2,7.1-7.1,7.1h-17.8c-3.9,0-7.1-3.2-7.1-7.1v-1.8c0-3.9,3.2-7.1,7.1-7.1h17.8
		C330.3,302.3,333.5,305.5,333.5,309.4z"/>
	<text transform="matrix(1 0 0 1 307.3187 307.4771)" class="st31 st8 st25">Puntos:</text>
</g>
<g>
	<path class="st30" d="M150.8,309.4v1.8c0,3.9-3.2,7.1-7.1,7.1h-17.8c-3.9,0-7.1-3.2-7.1-7.1v-1.8c0-3.9,3.2-7.1,7.1-7.1h17.8
		C147.6,302.3,150.8,305.5,150.8,309.4z"/>
	<text transform="matrix(1 0 0 1 124.5803 307.4772)" class="st31 st8 st25">Puntos:</text>
</g>
</svg>
