<?xml version="1.0" encoding="utf-8"?>
<!-- Generator: Adobe Illustrator 24.0.2, SVG Export Plug-In . SVG Version: 6.00 Build 0)  -->
<svg version="1.1"
	 id="svg2" xmlns:cc="http://creativecommons.org/ns#" xmlns:dc="http://purl.org/dc/elements/1.1/" xmlns:inkscape="http://www.inkscape.org/namespaces/inkscape" xmlns:rdf="http://www.w3.org/1999/02/22-rdf-syntax-ns#" xmlns:sodipodi="http://sodipodi.sourceforge.net/DTD/sodipodi-0.dtd" xmlns:svg="http://www.w3.org/2000/svg"
	 xmlns="http://www.w3.org/2000/svg" xmlns:xlink="http://www.w3.org/1999/xlink" x="0px" y="0px" viewBox="0 0 451.1 451"
	 style="enable-background:new 0 0 451.1 451;" xml:space="preserve">
<style type="text/css">
	.st0{fill-rule:evenodd;clip-rule:evenodd;fill:#FF0000;}
	.st1{fill:none;stroke:#000000;stroke-width:1.0718;}
	.st2{fill:none;stroke:#000000;stroke-width:1.0687;}
	.st3{fill:none;stroke:#000000;}
	.st4{fill:none;stroke:#000000;stroke-width:1.3131;}
	.st5{fill-rule:evenodd;clip-rule:evenodd;fill-opacity:0.5516;}
	.st6{fill:none;stroke:#000000;stroke-width:0.8654;stroke-miterlimit:3.4617;}
	.st7{fill:none;stroke:#000000;stroke-width:1.2082;stroke-linejoin:bevel;}
	.st8{font-family:'ArialMT';}
	.st9{font-size:4px;}
	.st10{fill-rule:evenodd;clip-rule:evenodd;fill:#FFFF00;}
	.st11{fill:none;stroke:#000000;stroke-width:1.3169;}
	.st12{fill:none;stroke:#000000;stroke-width:1.1551;}
	.st13{fill-rule:evenodd;clip-rule:evenodd;fill:#FFFFFF;fill-opacity:0.278;stroke:#000000;stroke-width:0.9983;}
	.st14{fill-rule:evenodd;clip-rule:evenodd;fill:#FF0000;stroke:#000000;stroke-width:0.777;stroke-miterlimit:3.1078;}
	.st15{fill-rule:evenodd;clip-rule:evenodd;fill:#0000FF;stroke:#000000;stroke-width:0.777;stroke-miterlimit:3.1078;}
	.st16{fill-rule:evenodd;clip-rule:evenodd;fill:#008000;}
	.st17{fill:none;stroke:#000000;stroke-width:1.3191;}
	.st18{fill-rule:evenodd;clip-rule:evenodd;fill:#008000;stroke:#000000;stroke-width:0.777;stroke-miterlimit:3.1078;}
	.st19{fill-rule:evenodd;clip-rule:evenodd;fill:#FFFFFF;fill-opacity:0.278;stroke:#000000;stroke-width:0.9967;}
	.st20{fill-rule:evenodd;clip-rule:evenodd;fill:#FFFF00;stroke:#000000;stroke-width:0.777;}
	.st21{fill-rule:evenodd;clip-rule:evenodd;fill:#0000FF;}
	.st22{fill:none;stroke:#000000;stroke-width:1.0746;}
	.st23{fill:none;stroke:#000000;stroke-width:1.3152;}
	.st24{fill:none;stroke:#000000;stroke-width:1.319;}
	.st25{fill:none;stroke:#000000;stroke-width:1.3161;}
	.st26{font-family:'Arial-BoldMT';}
	.st27{font-size:6px;}
	
		.st28{fill-rule:evenodd;clip-rule:evenodd;fill:url(#path12778_1_);stroke:#000000;stroke-width:0.5;stroke-linejoin:bevel;stroke-miterlimit:4;}
	
		.st29{fill-rule:evenodd;clip-rule:evenodd;fill:url(#path16288_1_);stroke:#000000;stroke-width:0.5;stroke-linejoin:bevel;stroke-miterlimit:4;}
	
		.st30{fill-rule:evenodd;clip-rule:evenodd;fill:url(#path18919_1_);stroke:#000000;stroke-width:0.5;stroke-linejoin:bevel;stroke-miterlimit:4;}
	
		.st31{fill-rule:evenodd;clip-rule:evenodd;fill:url(#path18921_1_);stroke:#000000;stroke-width:0.5;stroke-linejoin:bevel;stroke-miterlimit:4;}
</style>
<defs>
	
		<inkscape:perspective  id="perspective3618" inkscape:persp3d-origin="372.04724 : 350.78739 : 1" inkscape:vp_x="0 : 526.18109 : 1" inkscape:vp_y="0 : 1000 : 0" inkscape:vp_z="744.09448 : 526.18109 : 1" sodipodi:type="inkscape:persp3d">
		</inkscape:perspective>
</defs>
<sodipodi:namedview  bordercolor="#666666" borderopacity="1.0" gridtolerance="1px" id="base" inkscape:current-layer="layer1" inkscape:cx="160.95076" inkscape:cy="236.45219" inkscape:document-units="px" inkscape:grid-bbox="true" inkscape:grid-points="true" inkscape:guide-bbox="true" inkscape:guide-points="false" inkscape:pageopacity="0.0" inkscape:pageshadow="2" inkscape:window-height="977" inkscape:window-width="1280" inkscape:window-x="0" inkscape:window-y="20" inkscape:zoom="1.4055974" pagecolor="#ffffff" showborder="true" showgrid="false" showguides="true">
	
		<inkscape:grid  color="#0000ff" empcolor="#0000ff" empopacity="0.4" empspacing="5" enabled="true" id="GridFromPre046Settings" opacity="0.2" originx="0px" originy="0px" spacingx="10px" spacingy="10px" type="xygrid" visible="true">
		</inkscape:grid>
</sodipodi:namedview>
<g id="layer1" transform="translate(95.075801,-68.821542)" inkscape:groupmode="layer" inkscape:label="Capa 1">
	<g id="g8825" transform="translate(-97.900538,26.922648)">
		<path id="path7709" class="st0" d="M174.8,213.8l106.7-0.2l-53.3,53.6L174.8,213.8z"/>
		<rect id="rect5057" x="153.4" y="128.2" class="st0" width="50" height="21.7"/>
		<rect id="rect3293" x="203.4" y="64.3" class="st0" width="50" height="149.5"/>
		<path id="path1481" class="st1" d="M203.4,213.6V43.3"/>
		<path id="path1483" class="st2" d="M253.4,42.4v171.3"/>
		<path id="path1485" class="st3" d="M153.4,192.4h150"/>
		<path id="path1493" class="st4" d="M154.2,107.5h148.7"/>
		<path id="path1495" class="st4" d="M154.2,65h148.7"/>
		<path id="path1497" class="st4" d="M154.2,86.2h148.7"/>
		<path id="path1499" class="st4" d="M154.2,128.8h148.7"/>
		<path id="path1501" class="st4" d="M154.2,150.1h148.7"/>
		<path id="path1503" class="st4" d="M154.2,171.4h148.7"/>
		
			<path id="path3295" sodipodi:cx="190" sodipodi:cy="59.967434" sodipodi:rx="10" sodipodi:ry="10" sodipodi:type="arc" class="st5" d="
			M237.1,54c0,4.8-3.9,8.7-8.7,8.7s-8.7-3.9-8.7-8.7s3.9-8.7,8.7-8.7S237.1,49.2,237.1,54z"/>
		
			<path id="path4180" sodipodi:cx="190" sodipodi:cy="59.967434" sodipodi:rx="10" sodipodi:ry="10" sodipodi:type="arc" class="st5" d="
			M287.3,139c0,4.8-3.9,8.7-8.7,8.7s-8.7-3.9-8.7-8.7s3.9-8.7,8.7-8.7S287.3,134.2,287.3,139z"/>
		
			<path id="path4182" sodipodi:cx="190" sodipodi:cy="59.967434" sodipodi:rx="10" sodipodi:ry="10" sodipodi:type="arc" class="st6" d="
			M187.8,139.6c0,4.8-3.9,8.7-8.7,8.7s-8.7-3.9-8.7-8.7s3.9-8.7,8.7-8.7S187.8,134.8,187.8,139.6z"/>
		<path id="path5059" class="st3" d="M153.4,192.4l150,150"/>
		<path id="path5061" class="st3" d="M303.4,192.4l-150,150"/>
		<path id="path5069" class="st7" d="M175.1,213.9h106.5"/>
		<text transform="matrix(-1 0 0 -1 186.3042 138.02)" class="st8 st9">SALIDA</text>
		<path id="path10460" class="st10" d="M281.9,321l-106.7,0.2l53.3-53.6L281.9,321z"/>
		<path id="rect10462" class="st10" d="M303.4,406.6h-50v-21.7h50V406.6z"/>
		<path id="rect10464" class="st10" d="M253.4,470.5h-50V321h50V470.5z"/>
		<path id="path10466" class="st1" d="M253.4,321.2v170.3"/>
		<path id="path10468" class="st2" d="M203.4,492.4V321"/>
		<path id="path10470" class="st3" d="M303.4,342.4h-150"/>
		<path id="path10472" class="st11" d="M303.4,427.3H153.8"/>
		<path id="path10474" class="st11" d="M303.4,469.8H153.8"/>
		<path id="path10476" class="st11" d="M303.4,448.6H153.8"/>
		<path id="path10478" class="st11" d="M303.4,406H153.8"/>
		<path id="path10480" class="st12" d="M302.7,384.5H153.8"/>
		<path id="path10482" class="st11" d="M303.4,363.4H153.8"/>
		
			<path id="path10484" sodipodi:cx="190" sodipodi:cy="59.967434" sodipodi:rx="10" sodipodi:ry="10" sodipodi:type="arc" class="st5" d="
			M219.6,480.8c0-4.8,3.9-8.7,8.7-8.7s8.7,3.9,8.7,8.7s-3.9,8.7-8.7,8.7S219.6,485.6,219.6,480.8z"/>
		
			<path id="path10486" sodipodi:cx="190" sodipodi:cy="59.967434" sodipodi:rx="10" sodipodi:ry="10" sodipodi:type="arc" class="st5" d="
			M169.4,395.2c0-4.8,3.9-8.7,8.7-8.7s8.7,3.9,8.7,8.7s-3.9,8.7-8.7,8.7S169.4,400,169.4,395.2z"/>
		
			<path id="path10488" sodipodi:cx="190" sodipodi:cy="59.967434" sodipodi:rx="10" sodipodi:ry="10" sodipodi:type="arc" class="st6" d="
			M268.9,395.2c0-4.8,3.9-8.7,8.7-8.7s8.7,3.9,8.7,8.7s-3.9,8.7-8.7,8.7S268.9,400,268.9,395.2z"/>
		<path id="path10490" class="st7" d="M281.6,320.9H175.1"/>
		<text transform="matrix(1 0 0 1 270.414 396.775)" class="st8 st9">SALIDA</text>
		<rect id="rect1477" x="303.4" y="42.9" class="st13" width="150" height="149.5"/>
		<rect id="rect3291" x="3.9" y="42.9" class="st13" width="150" height="149.5"/>
		
			<path id="path1323" sodipodi:cx="101.04425" sodipodi:cy="353.10019" sodipodi:rx="83.160309" sodipodi:ry="83.160309" sodipodi:type="arc" class="st14" d="
			M143,117.4c0,35.7-28.9,64.6-64.6,64.6c-35.7,0-64.6-28.9-64.6-64.6c0,0,0,0,0,0c0-35.7,28.9-64.6,64.6-64.6
			C114,52.7,143,81.7,143,117.4C143,117.3,143,117.4,143,117.4z"/>
		<rect id="rect9426" x="3.9" y="42.9" class="st3" width="449.4" height="449"/>
		
			<path id="path1479" sodipodi:cx="101.04425" sodipodi:cy="353.10019" sodipodi:rx="83.160309" sodipodi:ry="83.160309" sodipodi:type="arc" class="st15" d="
			M443,117.4c0,35.7-28.9,64.6-64.6,64.6c-35.7,0-64.6-28.9-64.6-64.6c0,0,0,0,0,0c0-35.7,28.9-64.6,64.6-64.6
			C414,52.7,443,81.7,443,117.4C443,117.3,443,117.4,443,117.4z"/>
		<path id="path8612" class="st16" d="M174.7,320.4l-0.2-106.7l53.6,53.3L174.7,320.4z"/>
		<rect id="rect8614" x="89.1" y="291.9" class="st16" width="21.7" height="50"/>
		<rect id="rect8616" x="25.2" y="241.9" class="st16" width="149.5" height="50"/>
		<path id="path8618" class="st1" d="M174.5,291.9H4.3"/>
		<path id="path8620" class="st2" d="M3.4,241.9h171.3"/>
		<path id="path8622" class="st3" d="M153.9,341.9v-150"/>
		<path id="path8624" class="st17" d="M68.5,342.4v-150"/>
		<path id="path8626" class="st17" d="M25.9,342.4v-150"/>
		<path id="path8628" class="st17" d="M47.2,342.4v-150"/>
		<path id="path8630" class="st17" d="M89.7,342.4v-150"/>
		<path id="path8632" class="st17" d="M111,342.4v-150"/>
		<path id="path8634" class="st17" d="M132.3,342.4v-150"/>
		
			<path id="path8636" sodipodi:cx="190" sodipodi:cy="59.967434" sodipodi:rx="10" sodipodi:ry="10" sodipodi:type="arc" class="st5" d="
			M14.9,258.1c4.8,0,8.7,3.9,8.7,8.7s-3.9,8.7-8.7,8.7s-8.7-3.9-8.7-8.7S10.1,258.1,14.9,258.1z"/>
		
			<path id="path8638" sodipodi:cx="190" sodipodi:cy="59.967434" sodipodi:rx="10" sodipodi:ry="10" sodipodi:type="arc" class="st5" d="
			M100.2,207.9c4.8,0,8.7,3.9,8.7,8.7s-3.9,8.7-8.7,8.7s-8.7-3.9-8.7-8.7S95.4,207.9,100.2,207.9z"/>
		
			<path id="path8640" sodipodi:cx="190" sodipodi:cy="59.967434" sodipodi:rx="10" sodipodi:ry="10" sodipodi:type="arc" class="st6" d="
			M100.5,307.4c4.8,0,8.7,3.9,8.7,8.7s-3.9,8.7-8.7,8.7c-4.8,0-8.7-3.9-8.7-8.7S95.7,307.4,100.5,307.4z"/>
		<path id="path8646" class="st7" d="M174.8,320.1V213.6"/>
		<text transform="matrix(0 1 -1 0 98.9458 308.9171)" class="st8 st9">SALIDA</text>
		<rect id="rect8678" x="3.9" y="342.6" class="st13" width="150" height="149.5"/>
		
			<path id="path8680" sodipodi:cx="101.04425" sodipodi:cy="353.10019" sodipodi:rx="83.160309" sodipodi:ry="83.160309" sodipodi:type="arc" class="st18" d="
			M143,417.4c0,35.7-28.9,64.6-64.6,64.6s-64.6-28.9-64.6-64.6c0,0,0,0,0,0c0-35.7,28.9-64.6,64.6-64.6
			C114,352.7,143,381.7,143,417.4C143,417.3,143,417.4,143,417.4z"/>
		<rect id="rect8684" x="303.5" y="342.9" class="st19" width="150" height="149"/>
		<path id="path8686" class="st20" d="M442,417.4C442,453,413,482,377.4,482s-64.6-28.9-64.6-64.6s28.9-64.6,64.6-64.6
			S442,381.7,442,417.4z"/>
		<path id="path11413" class="st21" d="M282,213.8l0.2,106.7l-53.6-53.3L282,213.8z"/>
		<path id="path11415" class="st21" d="M367,192.4v50h-21.7v-50H367z"/>
		<path id="path11417" class="st21" d="M431.5,242.4v50H282v-50H431.5z"/>
		<path id="path11419" class="st22" d="M282.2,242.4h171.2"/>
		<path id="path11421" class="st2" d="M453.4,292.4H282"/>
		<path id="path11423" class="st3" d="M303.4,192.4v150"/>
		<path id="path11425" class="st23" d="M388.3,193.2v149.1"/>
		<path id="path11427" class="st24" d="M430.8,192.4v150"/>
		<path id="path11429" class="st24" d="M409.5,192.4v150"/>
		<path id="path11431" class="st25" d="M367,193v149.3"/>
		<path id="path11433" class="st24" d="M345.7,192.4v150"/>
		<path id="path11435" class="st24" d="M324.4,192.4v150"/>
		
			<path id="path11437" sodipodi:cx="190" sodipodi:cy="59.967434" sodipodi:rx="10" sodipodi:ry="10" sodipodi:type="arc" class="st5" d="
			M441.8,276.1c-4.8,0-8.7-3.9-8.7-8.7s3.9-8.7,8.7-8.7s8.7,3.9,8.7,8.7S446.6,276.1,441.8,276.1z"/>
		
			<path id="path11439" sodipodi:cx="190" sodipodi:cy="59.967434" sodipodi:rx="10" sodipodi:ry="10" sodipodi:type="arc" class="st5" d="
			M356.2,326.3c-4.8,0-8.7-3.9-8.7-8.7s3.9-8.7,8.7-8.7s8.7,3.9,8.7,8.7S361,326.3,356.2,326.3z"/>
		
			<path id="path11441" sodipodi:cx="190" sodipodi:cy="59.967434" sodipodi:rx="10" sodipodi:ry="10" sodipodi:type="arc" class="st6" d="
			M355.6,226.8c-4.8,0-8.7-3.9-8.7-8.7s3.9-8.7,8.7-8.7s8.7,3.9,8.7,8.7S360.4,226.8,355.6,226.8z"/>
		<path id="path11443" class="st7" d="M281.9,214.1v106.5"/>
		<text transform="matrix(0 -1 1 0 357.175 225.3071)" class="st8 st9">SALIDA</text>
		<text transform="matrix(1 0 0 1 254.9687 475.7334)" class="st26 st27">1</text>
		<text transform="matrix(1 0 0 1 254.9687 454.5426)" class="st26 st27">2</text>
		<text transform="matrix(1 0 0 1 254.9687 433.6503)" class="st26 st27">3</text>
		<text transform="matrix(1 0 0 1 254.9687 412.2802)" class="st26 st27">4</text>
		<text transform="matrix(1 0 0 1 254.9687 390.4925)" class="st26 st27">5</text>
		<text transform="matrix(1 0 0 1 254.9687 369.7764)" class="st26 st27">6</text>
		<text transform="matrix(1 0 0 1 254.9687 348.7048)" class="st26 st27">7</text>
		<text transform="matrix(1 0 0 1 254.9687 327.2155)" class="st26 st27">8</text>
		<text transform="matrix(0 -1 1 0 436.9056 300.9292)" class="st26 st27">16</text>
		<text transform="matrix(0 -1 1 0 415.7148 300.9292)" class="st26 st27">15</text>
		<text transform="matrix(0 -1 1 0 394.524 300.9292)" class="st26 st27">14</text>
		<text transform="matrix(0 -1 1 0 373.0348 300.9292)" class="st26 st27">13</text>
		<text transform="matrix(0 -1 1 0 351.844 300.9292)" class="st26 st27">12</text>
		<text transform="matrix(0 -1 1 0 330.9486 300.9292)" class="st26 st27">11</text>
		<text transform="matrix(0 -1 1 0 309.4593 300.9292)" class="st26 st27">10</text>
		<text transform="matrix(0 -1 1 0 288.3282 300.9292)" class="st26 st27">  9</text>
		<text transform="matrix(0 -1 1 0 436.9056 240.3413)" class="st26 st27">18</text>
		<text transform="matrix(0 -1 1 0 415.7148 240.3413)" class="st26 st27">19</text>
		<text transform="matrix(0 -1 1 0 394.524 240.3413)" class="st26 st27">20</text>
		<text transform="matrix(0 -1 1 0 373.108 240.3413)" class="st26 st27">21</text>
		<text transform="matrix(0 -1 1 0 351.844 240.3413)" class="st26 st27">22</text>
		<text transform="matrix(0 -1 1 0 330.9486 240.3413)" class="st26 st27">23</text>
		<text transform="matrix(0 -1 1 0 309.4593 240.3413)" class="st26 st27">24</text>
		<text transform="matrix(0 -1 1 0 288.0297 240.3413)" class="st26 st27">25</text>
		<text transform="matrix(0 -1 1 0 436.9568 289.9262)" class="st26 st27">17</text>
		<g id="g12636" transform="translate(43.35909,0)">
			<text transform="matrix(-1 0 0 -1 218.6405 58.1001)" class="st26 st27">33</text>
			<text transform="matrix(-1 0 0 -1 218.6405 79.2915)" class="st26 st27">32</text>
			<text transform="matrix(-1 0 0 -1 218.6405 100.4829)" class="st26 st27">31</text>
			<text transform="matrix(-1 0 0 -1 218.6405 121.9712)" class="st26 st27">30</text>
			<text transform="matrix(-1 0 0 -1 218.6405 143.1626)" class="st26 st27">29</text>
			<text transform="matrix(-1 0 0 -1 218.6405 164.0571)" class="st26 st27">28</text>
			<text transform="matrix(-1 0 0 -1 218.6405 185.5473)" class="st26 st27">27</text>
			<text transform="matrix(-1 0 0 -1 218.6405 206.6782)" class="st26 st27">26</text>
			<text transform="matrix(-1 0 0 -1 158.0526 58.1001)" class="st26 st27">35</text>
			<text transform="matrix(-1 0 0 -1 158.0526 79.2915)" class="st26 st27">36</text>
			<text transform="matrix(-1 0 0 -1 158.0526 100.4829)" class="st26 st27">37</text>
			<text transform="matrix(-1 0 0 -1 158.0526 121.8989)" class="st26 st27">38</text>
			<text transform="matrix(-1 0 0 -1 158.0526 143.1626)" class="st26 st27">39</text>
			<text transform="matrix(-1 0 0 -1 158.0526 164.0571)" class="st26 st27">40</text>
			<text transform="matrix(-1 0 0 -1 158.0526 185.5473)" class="st26 st27">41</text>
			<text transform="matrix(-1 0 0 -1 158.0526 206.977)" class="st26 st27">42</text>
			<text transform="matrix(-1 0 0 -1 207.6375 58.0493)" class="st26 st27">34</text>
		</g>
		<g id="g12672" transform="matrix(0,-1,1,0,-38.66719,451.8884)">
			<text transform="matrix(-1 0 0 -1 218.64 58.1013)" class="st26 st27">50</text>
			<text transform="matrix(-1 0 0 -1 218.64 79.2927)" class="st26 st27">49</text>
			<text transform="matrix(-1 0 0 -1 218.64 100.4822)" class="st26 st27">48</text>
			<text transform="matrix(-1 0 0 -1 218.64 121.9724)" class="st26 st27">47</text>
			<text transform="matrix(-1 0 0 -1 218.64 143.1638)" class="st26 st27">46</text>
			<text transform="matrix(-1 0 0 -1 218.64 164.0583)" class="st26 st27">45</text>
			<text transform="matrix(-1 0 0 -1 218.64 185.5466)" class="st26 st27">44</text>
			<text transform="matrix(-1 0 0 -1 218.64 206.6775)" class="st26 st27">43</text>
			<text transform="matrix(-1 0 0 -1 158.0522 58.1013)" class="st26 st27">52</text>
			<text transform="matrix(-1 0 0 -1 158.0522 79.2927)" class="st26 st27">53</text>
			<text transform="matrix(-1 0 0 -1 158.0522 100.4822)" class="st26 st27">54</text>
			<text transform="matrix(-1 0 0 -1 158.0522 121.8982)" class="st26 st27">55</text>
			<text transform="matrix(-1 0 0 -1 158.0522 143.1638)" class="st26 st27">56</text>
			<text transform="matrix(-1 0 0 -1 158.0522 164.0583)" class="st26 st27">57</text>
			<text transform="matrix(-1 0 0 -1 158.0522 185.5466)" class="st26 st27">58</text>
			<text transform="matrix(-1 0 0 -1 158.0522 206.9763)" class="st26 st27">59</text>
			<text transform="matrix(-1 0 0 -1 207.637 58.0505)" class="st26 st27">51</text>
		</g>
		<text transform="matrix(1 0 0 1 194.9074 475.7334)" class="st26 st27">67</text>
		<text transform="matrix(1 0 0 1 194.9074 454.5426)" class="st26 st27">66</text>
		<text transform="matrix(1 0 0 1 194.9074 433.6503)" class="st26 st27">65</text>
		<text transform="matrix(1 0 0 1 194.9074 412.2802)" class="st26 st27">64</text>
		<text transform="matrix(1 0 0 1 194.9074 390.4925)" class="st26 st27">63</text>
		<text transform="matrix(1 0 0 1 194.9074 369.7764)" class="st26 st27">62</text>
		<text transform="matrix(1 0 0 1 194.9074 348.7048)" class="st26 st27">61</text>
		<text transform="matrix(1 0 0 1 194.9074 327.2155)" class="st26 st27">60</text>
		<text transform="matrix(1 0 0 1 205.2248 475.7334)" class="st26 st27">68</text>
		
			<radialGradient id="path12778_1_" cx="359.1571" cy="397.5925" r="52.8564" gradientTransform="matrix(0.687 0.7266 0.7292 -0.6894 -159.5507 429.169)" gradientUnits="userSpaceOnUse">
			<stop  offset="0" style="stop-color:#FFFFFF"/>
			<stop  offset="1" style="stop-color:#7F7F7F"/>
		</radialGradient>
		
			<path id="path12778" inkscape:flatsided="false" inkscape:randomized="0" inkscape:rounded="0" sodipodi:arg1="0.75655644" sodipodi:arg2="0.99821742" sodipodi:cx="321.30942" sodipodi:cy="403.47925" sodipodi:r1="53.204556" sodipodi:r2="30.160938" sodipodi:sides="13" sodipodi:type="star" class="st28" d="
			M377.4,469.8l-7.2-23.9l-17.5,17.8l4.7-24.5l-23.8,7.7l15.6-19.5l-24.6-4.3l22.9-10.1l-19.8-15.2l24.9,1.7L342,376.8l21.3,13.1
			l1.3-25l12.8,21.5l12.7-21.5l1.3,25l21.3-13.1l-10.4,22.7l24.9-1.8l-19.8,15.2l22.9,10l-24.6,4.3l15.6,19.5l-23.8-7.6l4.7,24.5
			l-17.5-17.8L377.4,469.8z"/>
		
			<radialGradient id="path16288_1_" cx="293.7804" cy="524.2291" r="52.8564" gradientTransform="matrix(0.3801 0.9249 0.9282 -0.3814 -220.654 44.951)" gradientUnits="userSpaceOnUse">
			<stop  offset="0" style="stop-color:#FFFFFF"/>
			<stop  offset="1" style="stop-color:#7F7F7F"/>
		</radialGradient>
		
			<path id="path16288" inkscape:flatsided="false" inkscape:randomized="0" inkscape:rounded="0" sodipodi:arg1="0.75655644" sodipodi:arg2="0.99821742" sodipodi:cx="321.30942" sodipodi:cy="403.47925" sodipodi:r1="53.204556" sodipodi:r2="30.160938" sodipodi:sides="13" sodipodi:type="star" class="st29" d="
			M358.5,167l1.8-24.9l-22.7,10.4l13.2-21.2l-24.9-1.4l21.6-12.6L326,104.4l25-1.2l-13-21.3l22.6,10.6L359,67.5l15.1,19.9l10.1-22.8
			l4.2,24.6L408,73.7l-7.7,23.8l24.6-4.6l-17.9,17.4l23.9,7.3l-23.9,7.1l17.8,17.6l-24.5-4.8l7.5,23.8l-19.5-15.7l-4.4,24.6
			l-10-22.9L358.5,167z"/>
		
			<radialGradient id="path18919_1_" cx="-106.6442" cy="-93.3581" r="52.8564" gradientTransform="matrix(-0.687 0.7266 -0.7292 -0.6894 -62.7304 429.169)" gradientUnits="userSpaceOnUse">
			<stop  offset="0" style="stop-color:#FFFFFF"/>
			<stop  offset="1" style="stop-color:#7F7F7F"/>
		</radialGradient>
		
			<path id="path18919" inkscape:flatsided="false" inkscape:randomized="0" inkscape:rounded="0" sodipodi:arg1="0.75655644" sodipodi:arg2="0.99821742" sodipodi:cx="321.30942" sodipodi:cy="403.47925" sodipodi:r1="53.204556" sodipodi:r2="30.160938" sodipodi:sides="13" sodipodi:type="star" class="st30" d="
			M78.3,469.8l7.2-23.9l17.5,17.8l-4.7-24.5l23.8,7.7l-15.6-19.5l24.6-4.3L108.3,413l19.8-15.2l-24.9,1.7l10.5-22.7l-21.3,13.1
			l-1.3-25l-12.8,21.5l-12.7-21.5l-1.3,25l-21.3-13.1l10.4,22.7l-24.9-1.8l19.8,15.2l-22.9,10l24.6,4.3l-15.6,19.5l23.8-7.6
			l-4.7,24.5l17.5-17.8L78.3,469.8z"/>
		
			<radialGradient id="path18921_1_" cx="36.0734" cy="-100.7094" r="52.8564" gradientTransform="matrix(-0.3801 0.9249 -0.9282 -0.3814 -0.6279 44.9509)" gradientUnits="userSpaceOnUse">
			<stop  offset="0" style="stop-color:#FFFFFF"/>
			<stop  offset="1" style="stop-color:#7F7F7F"/>
		</radialGradient>
		
			<path id="path18921" inkscape:flatsided="false" inkscape:randomized="0" inkscape:rounded="0" sodipodi:arg1="0.75655644" sodipodi:arg2="0.99821742" sodipodi:cx="321.30942" sodipodi:cy="403.47925" sodipodi:r1="53.204556" sodipodi:r2="30.160938" sodipodi:sides="13" sodipodi:type="star" class="st31" d="
			M98.2,167l-1.8-24.9l22.7,10.4l-13.2-21.2l24.9-1.4l-21.6-12.6l21.4-12.8l-25-1.2l13-21.3L96.1,92.4l1.6-24.9L82.6,87.4L72.5,64.5
			l-4.2,24.6L48.7,73.7l7.7,23.8l-24.6-4.6l17.9,17.4l-23.9,7.3l23.9,7.1l-17.8,17.6l24.5-4.8l-7.5,23.8l19.5-15.7l4.4,24.6l10-22.9
			L98.2,167z"/>
	</g>
</g>
</svg>
